<?xml version="1.0" encoding="UTF-8" standalone="no"?>
<!-- Created with Inkscape (http://www.inkscape.org/) -->
<svg xmlns:dc="http://purl.org/dc/elements/1.1/" xmlns:cc="http://creativecommons.org/ns#" xmlns:rdf="http://www.w3.org/1999/02/22-rdf-syntax-ns#" xmlns:svg="http://www.w3.org/2000/svg" xmlns="http://www.w3.org/2000/svg" xmlns:sodipodi="http://sodipodi.sourceforge.net/DTD/sodipodi-0.dtd" xmlns:inkscape="http://www.inkscape.org/namespaces/inkscape" version="1.0" width="300" height="300" id="svg2" inkscape:version="0.48.3.1 r9886" sodipodi:docname="dessin.svg">
  <metadata id="metadata2990">
    <rdf:RDF>
      <cc:Work rdf:about="">
        <dc:format>image/svg+xml</dc:format>
        <dc:type rdf:resource="http://purl.org/dc/dcmitype/StillImage"/>
      </cc:Work>
    </rdf:RDF>
  </metadata>
  <sodipodi:namedview pagecolor="#ffffff" bordercolor="#666666" borderopacity="1" objecttolerance="10" gridtolerance="10" guidetolerance="10" inkscape:pageopacity="0" inkscape:pageshadow="2" inkscape:window-width="1215" inkscape:window-height="1000" id="namedview2988" showgrid="false" inkscape:zoom="2.2250294" inkscape:cx="124.56767" inkscape:cy="138.09744" inkscape:window-x="65" inkscape:window-y="24" inkscape:window-maximized="1" inkscape:current-layer="svg2"/>
  <defs id="defs5"/>
  <path style="fill:#000000" d="m 117.61168,272.03582 c 0.21071,-31.89362 8.31417,-63.87114 20.0051,-78.94459 6.54773,-8.44217 11.90498,-16.53672 11.90498,-17.98789 0,-1.4512 -10.98316,-1.49289 -24.40704,-0.0926 -19.25616,2.00857 -24.04235,1.52554 -22.67909,-2.28884 0.95036,-2.6591 6.08548,-5.28213 11.41138,-5.82897 5.32591,-0.54685 15.70682,-1.89661 23.06873,-2.99945 12.50277,-1.87298 12.96414,-2.43423 6.99766,-8.51272 -12.92836,-13.17107 -2.01494,-16.20342 14.69679,-4.08362 7.926,5.74816 16.2217,7.37336 37.63682,7.37336 30.68934,0 45.28305,6.31907 45.18277,19.56409 -0.11959,15.78547 -9.88425,21.49872 -44.83053,26.22989 -21.29448,2.88295 -25.2653,6.23577 -19.38424,16.36728 3.20837,5.5271 9.70569,7.34422 30.65832,8.57428 31.44105,1.84585 38.61633,7.82255 36.79421,30.6481 -0.95212,11.92714 -2.7063,14.7467 -9.17453,14.7467 -6.51633,0 -8.36757,-3.07221 -9.99665,-16.59004 l -1.99934,-16.59006 -22.6308,1.25499 c -18.74693,1.03963 -24.06527,-0.0675 -30.98962,-6.45169 -4.59735,-4.23864 -8.35886,-11.96323 -8.35886,-17.16573 0,-17.63599 5.96916,-22.18551 35.95202,-27.40144 25.11436,-4.36905 28.26759,-5.83027 27.21631,-12.61228 -1.10073,-7.10076 -3.41738,-7.59278 -31.17902,-6.6216 -22.52674,0.78798 -30.98507,2.5424 -33.98863,7.04985 -2.19927,3.30039 -7.21947,9.11582 -11.15599,12.92313 -11.07009,10.70673 -14.83052,23.38128 -14.88995,50.18645 -0.0656,29.6216 -2.99703,41.23512 -10.40839,41.23512 -3.59128,0 -5.50384,-4.20285 -5.45241,-11.98171 z m -68.056491,1.38852 c 0,-1.77089 3.601076,-16.28719 8.002371,-32.25843 5.259593,-19.08578 8.850918,-47.99243 10.478128,-84.33877 2.538237,-56.69557 6.523533,-71.870749 20.713475,-78.87245 3.917048,-1.932779 33.138627,-5.3928 64.936877,-7.688973 31.79824,-2.296137 60.19044,-4.904056 63.09379,-5.795347 2.90331,-0.891292 4.70271,-5.360725 3.99865,-9.932057 -1.25673,-8.159725 -2.50063,-8.345165 -68.12041,-10.154845 C 96.835571,42.843985 86.3874,41.692452 89.273506,37.397619 91.995031,33.34773 107.31999,32.172786 161.4029,31.867602 c 63.62365,-0.359082 69.09338,0.138617 74.38089,6.768815 8.02531,10.062972 7.09342,22.902381 -2.2901,31.553797 -6.51215,6.004049 -13.38109,7.383825 -36.98764,7.429798 -15.94467,0.02949 -31.32349,1.421031 -34.17514,3.088847 -7.61481,4.453617 8.5224,42.326341 21.33215,50.064751 10.54928,6.37286 13.32471,16.83685 4.46575,16.83685 -12.32847,0 -34.60838,-38.43499 -34.60838,-59.702809 0,-10.58025 -0.68026,-11.051886 -12.99567,-9.009873 -7.1476,1.185157 -20.70846,3.250433 -30.13524,4.589582 -10.952373,1.555852 -18.631839,5.00555 -21.273393,9.556274 -2.273644,3.916838 -5.715535,26.506476 -7.648681,50.199246 -7.783964,95.39972 -15.254435,133.40129 -26.224351,133.40129 -3.128365,0 -5.687906,-1.44893 -5.687906,-3.21983 z m 51.982621,-130.9936 c 0,-2.42735 35.02728,-20.62704 39.699,-20.62704 10.65056,0 2.6438,9.82791 -12.76505,15.66838 -16.31071,6.18234 -26.93395,8.13812 -26.93395,4.95866 z m 100.96623,-15.06336 c -18.18503,-7.28727 -16.99041,-14.42888 1.99934,-11.95221 21.03388,2.74326 37.924,9.38241 34.99294,13.755 -3.49823,5.21856 -21.68224,4.3324 -36.99228,-1.80279 z M 97.539137,116.67399 c 0,-4.0886 25.871003,-16.990354 34.069583,-16.990354 6.39518,0 -0.028,8.576944 -11.07727,14.787114 -15.27872,8.58878 -22.992313,9.32793 -22.992313,2.20324 z M 200.50471,101.3551 c -15.22807,-7.746223 -14.13104,-14.037907 1.99933,-11.46645 31.83635,5.075265 39.2394,7.257667 37.85167,11.15858 -2.27213,6.3868 -27.5172,6.58182 -39.851,0.30784 z" id="path3014" inkscape:connector-curvature="0"/>
</svg>